<?xml version="1.0" encoding="UTF-8" standalone="no"?>
<!DOCTYPE svg PUBLIC "-//W3C//DTD SVG 1.1//EN" "http://www.w3.org/Graphics/SVG/1.1/DTD/svg11.dtd">
<svg width="100%" height="100%" viewBox="0 0 31 31" version="1.1" xmlns="http://www.w3.org/2000/svg" xmlns:xlink="http://www.w3.org/1999/xlink" xml:space="preserve" xmlns:serif="http://www.serif.com/" style="fill-rule:evenodd;clip-rule:evenodd;stroke-linejoin:round;stroke-miterlimit:2;">
    <g transform="matrix(1,0,0,1,-42,-305)">
        <g transform="matrix(1,0,0,1,-192.129,-190.522)">
            <g transform="matrix(1,0,0,1,4,0)">
                <path d="M247.002,496.299C249.668,496.299 252.588,497.491 255.762,499.874C259.277,503.213 261.035,507.027 261.035,511.314C261.035,516.314 258.828,520.489 254.414,523.838C251.777,525.567 248.95,526.431 245.933,526.431C240.454,526.431 236.099,523.926 232.866,518.917C231.499,516.495 230.816,513.96 230.816,511.314C230.816,506.451 232.93,502.369 237.158,499.068C239.473,497.476 241.919,496.553 244.497,496.299L247.002,496.299ZM237.612,507.022L237.612,516.69C237.691,517.286 237.988,517.584 238.506,517.584L253.345,517.584C253.941,517.496 254.238,517.198 254.238,516.69L254.238,507.125C254.238,506.763 254.063,506.46 253.711,506.216L238.14,506.216C237.788,506.431 237.612,506.7 237.612,507.022ZM238.594,507.125L238.682,507.125C239.248,507.505 241.035,508.965 244.043,511.504C244.668,512.051 245.298,512.554 245.933,513.013C248.472,510.953 250.762,509.048 252.803,507.3L252.905,507.476C251.782,508.453 250.469,509.732 248.965,511.314L253.345,516.5L253.345,516.69L248.335,511.768L248.247,511.768C248.247,511.934 247.476,512.74 245.933,514.185L243.428,511.856C241.787,513.575 240.117,515.215 238.418,516.778L238.418,516.602L242.886,511.314C242.417,510.767 240.986,509.371 238.594,507.125Z" style="fill-rule:nonzero;"/>
            </g>
        </g>
    </g>
</svg>
